<svg xmlns="http://www.w3.org/2000/svg" version="1.1" xlink="http://www.w3.org/1999/xlink" xmlns:svgjs="http://svgjs.com/svgjs" width="100%" height="100%" viewBox="20.555370330810547 13.199999809265137 58.88925552368164 73.10000610351562"><g fill="#5f1178"><path d="M41.4 43.2c0 3 1.5 5.7 3.9 7.2L42.5 65h15.1l-2.8-14.7c2.4-1.6 3.9-4.2 3.9-7.2 0-4.7-3.9-8.6-8.6-8.6-4.9 0-8.7 3.9-8.7 8.7zm13.2 0c0 1.9-1.1 3.6-2.9 4.3l-1.5.6 2.5 13h-5.4l2.5-13-1.5-.6c-1.8-.7-2.9-2.4-2.9-4.3 0-2.5 2.1-4.6 4.6-4.6 2.5-.1 4.6 2 4.6 4.6z"></path><path d="M79.3 26.2h-1.9c-14.1 0-25.9-11.5-26-11.6L50 13.2l-1.4 1.4c-.1.1-11.9 11.6-26 11.6h-1.9l-.1 1.9c0 .4-.6 10.6 2.6 22.8 4.2 16.3 13.2 28.4 25.9 34.9l.9.5.9-.5c12.7-6.5 21.7-18.5 25.9-34.9 3.2-12.2 2.6-22.4 2.6-22.8l-.1-1.9zM50 81.7C26.1 68.8 24.6 38 24.6 30.2c12.1-.8 21.9-8.3 25.4-11.4 3.6 3.1 13.4 10.7 25.4 11.4 0 7.8-1.5 38.6-25.4 51.5z"></path></g></svg>